<svg width="150" height="47" viewBox="0 0 150 47" fill="none" xmlns="http://www.w3.org/2000/svg">
<g clip-path="url(#clip0_516_3539)">
<path d="M33.6721 32.4734C33.7155 32.3952 33.7409 32.305 33.7409 32.2076C33.7409 31.9191 33.5225 31.6855 33.2523 31.6855C32.9826 31.6855 32.7637 31.9191 32.7637 32.2076C32.7637 32.4327 32.8988 32.625 33.0858 32.6978L34.6604 36.3377H29.2071L27.6905 32.5217C27.7194 32.4552 27.7364 32.3811 27.7364 32.3024C27.7364 32.0141 27.5174 31.7805 27.2478 31.7805C26.9781 31.7805 26.7598 32.0141 26.7598 32.3024C26.7598 32.547 26.9172 32.7522 27.1296 32.809L28.7244 36.8075C28.7746 36.9262 28.8855 37.0022 29.0073 37.0022H35.1333C35.2377 37.0022 35.3354 36.9461 35.3928 36.8527C35.45 36.759 35.4599 36.641 35.4181 36.5384L33.6721 32.4734Z" fill="#012970"/>
<path d="M14.1816 29.5932C14.4078 29.548 14.5791 29.3359 14.5791 29.0803C14.5791 28.7921 14.3602 28.5586 14.0912 28.5586C13.8216 28.5586 13.6033 28.7921 13.6033 29.0803C13.6033 29.1476 13.6146 29.2114 13.6363 29.2701L11.2783 34.7816C11.2342 34.8843 11.242 35.0042 11.2994 35.099C11.3567 35.1946 11.455 35.2524 11.5612 35.2524H12.9577C13.0452 35.3401 13.1627 35.3946 13.292 35.3946C13.5616 35.3946 13.7806 35.161 13.7806 34.8727C13.7806 34.5841 13.5616 34.3501 13.292 34.3501C13.1205 34.3501 12.9704 34.4451 12.8829 34.5874H12.0451L14.1816 29.5932Z" fill="#012970"/>
<path d="M23.5379 23.9999H23.1699C23.08 23.8844 22.9448 23.8103 22.7935 23.8103C22.5238 23.8103 22.3049 24.0438 22.3049 24.3329C22.3049 24.6212 22.5238 24.8547 22.7935 24.8547C22.9448 24.8547 23.08 24.7804 23.1699 24.6651H24.0362C24.1435 24.6651 24.2431 24.6057 24.2998 24.5084C24.3565 24.411 24.3625 24.2891 24.3154 24.1864L22.0954 19.344C22.0428 19.2293 21.9307 19.1563 21.8125 19.1582C21.6925 19.1597 21.5838 19.2351 21.5345 19.3519L19.8201 23.8414C19.6312 23.9144 19.4961 24.1058 19.4961 24.3331C19.4961 24.6214 19.7151 24.855 19.9847 24.855C20.2543 24.855 20.4726 24.6214 20.4726 24.3331C20.4726 24.2371 20.448 24.1474 20.4057 24.0697L21.8262 20.2661L23.5379 23.9999Z" fill="#012970"/>
<path d="M21.507 13.0356C21.507 12.7472 21.2879 12.5137 21.0184 12.5137C20.7488 12.5137 20.5304 12.7472 20.5304 13.0356C20.5304 13.1124 20.546 13.1853 20.5743 13.2512L15.4488 25.4411C15.2346 25.4959 15.0742 25.7025 15.0742 25.9488C15.0742 26.2371 15.2931 26.4707 15.5628 26.4707C15.8325 26.4707 16.0508 26.2371 16.0508 25.9488C16.0508 25.8714 16.0352 25.7992 16.0074 25.7327L21.1323 13.5433C21.3472 13.4879 21.507 13.282 21.507 13.0356Z" fill="#012970"/>
<path d="M20.7522 10.9918C20.882 10.9918 20.9991 10.9376 21.0865 10.8491H23.9714L26.8675 17.5909C26.8458 17.6496 26.8337 17.7135 26.8337 17.7805C26.8337 18.0689 27.0528 18.3024 27.3216 18.3024C27.5914 18.3024 27.8103 18.0689 27.8103 17.7805C27.8103 17.5251 27.639 17.3128 27.4127 17.2677L24.4527 10.3775C24.4021 10.2601 24.2917 10.1846 24.1704 10.1846H21.1613C21.0739 10.0414 20.9236 9.94727 20.7523 9.94727C20.4828 9.94727 20.2637 10.1813 20.2637 10.4691C20.2635 10.7575 20.4826 10.9918 20.7522 10.9918Z" fill="#012970"/>
<path d="M27.8527 24.6656C28.1231 24.6656 28.3413 24.4314 28.3413 24.143C28.3413 23.8888 28.1713 23.6766 27.9451 23.6307L23.5492 13.5575C23.5835 13.4858 23.6035 13.4052 23.6035 13.3194C23.6035 13.0304 23.3847 12.7969 23.1156 12.7969C22.8459 12.7969 22.627 13.0304 22.627 13.3194C22.627 13.5568 22.7759 13.7569 22.9787 13.82L27.3993 23.9521C27.3775 24.0115 27.3649 24.0753 27.3649 24.143C27.3648 24.4314 27.5831 24.6656 27.8527 24.6656Z" fill="#012970"/>
<path d="M30.5171 34.254C30.2476 34.254 30.0285 34.4877 30.0285 34.7758C30.0285 35.0649 30.2476 35.2986 30.5171 35.2986C30.6686 35.2986 30.8036 35.2243 30.8937 35.1088H32.3818C32.4868 35.1088 32.5852 35.0515 32.6423 34.9566C32.6996 34.8623 32.7081 34.7431 32.6646 34.6398L29.1135 26.1896C29.1092 26.1793 29.1031 26.1703 29.0977 26.1599C29.125 26.0948 29.1412 26.0226 29.1412 25.9464C29.1412 25.6574 28.9223 25.4238 28.6526 25.4238C28.383 25.4238 28.1641 25.6574 28.1641 25.9464C28.1641 26.1949 28.3269 26.4026 28.5447 26.4547C28.5453 26.4573 28.5458 26.46 28.5465 26.4619L31.9011 34.4438H30.8938C30.8037 34.3283 30.6686 34.254 30.5171 34.254Z" fill="#012970"/>
<path d="M29.3792 33.967C29.6487 33.967 29.8679 33.7327 29.8679 33.4444C29.8679 33.2187 29.7339 33.0277 29.5463 32.9541L28.4719 30.5354C28.5022 30.4676 28.5195 30.3915 28.5195 30.3108C28.5195 30.023 28.3012 29.7891 28.0316 29.7891C27.7621 29.7891 27.543 30.0231 27.543 30.3108C27.543 30.5542 27.6986 30.7579 27.9084 30.8161L28.96 33.1779C28.9166 33.256 28.8912 33.347 28.8912 33.4444C28.8911 33.7328 29.1096 33.967 29.3792 33.967Z" fill="#012970"/>
<path d="M22.7058 26.6576C22.8577 26.6576 22.9929 26.5841 23.0828 26.4679H26.4671C26.5733 26.4679 26.6722 26.4104 26.7295 26.3144C26.7863 26.219 26.7941 26.0988 26.7495 25.9964L22.1002 15.7418C22.0495 15.623 21.9397 15.5482 21.816 15.5488C21.6942 15.5501 21.5838 15.6268 21.5342 15.7463L17.2729 26.0008C17.23 26.1034 17.2391 26.2224 17.2965 26.3164C17.3537 26.4112 17.4516 26.468 17.5571 26.468H20.376C20.4658 26.5842 20.6011 26.6577 20.7524 26.6577C21.0226 26.6577 21.2411 26.4241 21.2411 26.1358C21.2411 25.8474 21.0226 25.6132 20.7524 25.6132C20.6011 25.6132 20.4659 25.6873 20.376 25.8035H18.0348L21.8238 16.6857L25.9809 25.8035H23.0828C22.993 25.6873 22.8577 25.6132 22.7058 25.6132C22.4362 25.6132 22.2178 25.8474 22.2178 26.1358C22.2178 26.4241 22.4362 26.6576 22.7058 26.6576Z" fill="#012970"/>
<path d="M17.0218 28.9322C17.151 28.9322 17.2686 28.8783 17.3561 28.7903H26.3643C26.4519 28.8782 26.5695 28.9322 26.6986 28.9322C26.9683 28.9322 27.1873 28.6989 27.1873 28.4106C27.1873 28.122 26.9683 27.8887 26.6986 27.8887C26.5273 27.8887 26.3765 27.9828 26.2896 28.1259H17.4303C17.3434 27.9828 17.1925 27.8887 17.0218 27.8887C16.7522 27.8887 16.5332 28.122 16.5332 28.4106C16.5332 28.6989 16.7521 28.9322 17.0218 28.9322Z" fill="#012970"/>
<path d="M26.0784 29.8852C25.9456 29.8852 25.8256 29.942 25.737 30.0343C25.7188 30.0304 25.7003 30.0277 25.6802 30.0277L16.9356 29.9799H16.9338C16.8398 29.9799 16.7516 30.0264 16.6931 30.1025C16.658 30.1328 16.6291 30.1715 16.6092 30.2168L14.2934 36.3419H9.31408L19.5651 12.2966C19.7641 12.2308 19.9084 12.0321 19.9084 11.7979C19.9084 11.5096 19.6894 11.2754 19.4198 11.2754C19.1502 11.2754 18.9318 11.5096 18.9318 11.7979C18.9318 11.887 18.9529 11.9708 18.9897 12.0444L8.52771 36.5838C8.48435 36.6871 8.49212 36.8063 8.54934 36.9013C8.60677 36.9968 8.70504 37.0541 8.81055 37.0541H14.4686C14.5633 37.0541 14.6512 37.0076 14.7093 36.9315C14.7443 36.9012 14.7731 36.8625 14.7937 36.8174L17.1089 30.6921H25.6696C25.7564 30.8352 25.9073 30.9296 26.0786 30.9296C26.3483 30.9296 26.5672 30.696 26.5672 30.4077C26.5672 30.1193 26.348 29.8852 26.0784 29.8852Z" fill="#012970"/>
<path d="M27.543 19.5824C27.543 19.8269 27.7012 20.032 27.9127 20.0888L32.0491 29.8582C32.007 29.935 31.9823 30.0253 31.9823 30.1216C31.9823 30.41 32.201 30.644 32.4701 30.644C32.7404 30.644 32.9588 30.41 32.9588 30.1216C32.9588 29.895 32.8235 29.7028 32.6353 29.6306L28.4735 19.8024C28.503 19.7352 28.5194 19.6611 28.5194 19.5824C28.5194 19.2941 28.3011 19.0605 28.0315 19.0605C27.7621 19.0604 27.543 19.294 27.543 19.5824Z" fill="#012970"/>
<path d="M37.5109 6.88383C33.3606 2.44518 27.8427 0 21.9731 0C16.1035 0 10.5863 2.44507 6.43598 6.88383C2.28573 11.3217 0 17.2229 0 23.5002C0 29.7775 2.28573 35.6778 6.43598 40.1165C10.5863 44.5547 16.1035 47 21.9731 47C27.8427 47 33.3606 44.5548 37.5109 40.1165C41.6611 35.6778 43.9462 29.7775 43.9462 23.5002C43.9462 17.2229 41.6611 11.3217 37.5109 6.88383ZM21.973 45.8272C10.4619 45.8272 1.09651 35.811 1.09651 23.5002C1.09651 11.1889 10.4619 1.17291 21.973 1.17291C33.4847 1.17291 42.8501 11.1888 42.8501 23.5002C42.8501 35.811 33.4847 45.8272 21.973 45.8272Z" fill="#012970"/>
<path d="M71.1862 27.687L62.8042 4.44531H60.2539L51.7927 27.904C51.319 29.1636 50.5193 30.0191 49.3549 30.5228L48.7305 30.769V31.9524H56.4V30.775L54.8391 30.124C54.5924 30.0247 54.4335 29.8723 54.3322 29.6379C54.2335 29.4039 54.2309 29.1814 54.324 28.923L56.8716 21.8402H64.5517L67.0557 28.8353C67.1487 29.093 67.1487 29.3162 67.0472 29.5504C66.9488 29.7849 66.7869 29.9427 66.5405 30.0422L64.7765 30.775V31.9524H74.8619V30.7631L73.632 30.3061C72.4596 29.7964 71.6595 28.941 71.1862 27.687ZM63.5409 18.9344H57.9202L60.7308 11.1887L63.5409 18.9344Z" fill="#012970"/>
<path d="M92.3003 28.6783L92.2945 28.6722C92.1082 28.239 91.9056 27.7526 91.6864 27.2193C91.4703 26.6805 91.2374 26.1004 90.9851 25.4734C90.6291 24.6529 90.2538 23.8211 89.8759 23.013C89.588 22.3978 89.2569 21.8175 88.8895 21.2961C89.3693 21.1088 89.7857 20.8806 90.1388 20.6107C90.6515 20.2237 91.0593 19.773 91.3497 19.2634C91.635 18.765 91.8396 18.226 91.96 17.6465C92.075 17.0894 92.136 16.492 92.136 15.8768C92.136 15.0741 92.0315 14.3062 91.8289 13.5915C91.6155 12.8417 91.2204 12.1735 90.6593 11.6057C90.1059 11.0429 89.35 10.6037 88.4158 10.287C87.5008 9.98268 86.312 9.83008 84.8826 9.83008H77.0566V10.9202L77.8758 11.254C78.2043 11.3946 78.4565 11.6058 78.6508 11.9097C78.8424 12.2093 78.9384 12.5314 78.9384 12.9005V28.7896C78.9384 29.1583 78.8424 29.4806 78.6508 29.7796C78.4565 30.0844 78.2043 30.295 77.8812 30.4359L77.0566 30.7758V31.8654H84.5209V30.7758L83.7015 30.4359C83.3731 30.295 83.1183 30.0844 82.9238 29.7796C82.7321 29.4806 82.639 29.1583 82.639 28.7896V21.882H84.5126C84.7208 21.882 84.9236 21.9873 85.1371 22.2101C85.4026 22.479 85.6576 22.8428 85.893 23.2936C86.1449 23.7742 86.405 24.3486 86.6735 25.0046C86.9448 25.6785 87.2324 26.3634 87.5339 27.0672C87.8873 27.9167 88.1915 28.6193 88.4374 29.1935C88.6759 29.756 88.868 30.2074 89.0046 30.5587C89.1715 30.9808 89.3114 31.3087 89.4238 31.5492L89.5523 31.8183H94.8771V30.6522L94.0529 30.5063C93.2287 30.1429 92.6559 29.5447 92.3003 28.6783ZM88.353 15.8769C88.353 16.9488 88.164 17.7221 87.7914 18.185C87.394 18.6714 86.9338 18.9935 86.3859 19.1751L86.2162 19.2281C86.0195 19.2749 85.8249 19.31 85.6354 19.3279C85.3699 19.3572 85.1015 19.3743 84.8413 19.3743H82.639V12.3378H84.8413C85.2464 12.3378 85.674 12.385 86.1124 12.4608C86.5067 12.5373 86.8682 12.7012 87.194 12.9472C87.5148 13.1937 87.7941 13.551 88.0187 14.0082C88.2406 14.4533 88.353 15.0855 88.353 15.8769Z" fill="#012970"/>
<path d="M97.0293 11.049L97.8486 11.3835C98.177 11.5234 98.4292 11.741 98.6264 12.0391C98.8184 12.3379 98.9114 12.6662 98.9114 13.0297V28.9242C98.9114 29.2937 98.8184 29.6159 98.6264 29.9145C98.4292 30.2139 98.177 30.4301 97.854 30.565L97.0294 30.9051V31.9946H104.494V30.9051L103.675 30.5713C103.349 30.43 103.094 30.2138 102.899 29.9144C102.705 29.6158 102.612 29.2936 102.612 28.9241V13.0296C102.612 12.6661 102.705 12.3378 102.899 12.039C103.094 11.7409 103.349 11.5233 103.669 11.3885L104.494 11.049V9.95898H97.0294L97.0293 11.049Z" fill="#012970"/>
<path d="M126.477 31.2568L126.468 31.2454C126.047 30.6241 125.559 30.0797 125.019 29.6054C126.022 28.7497 126.855 27.6712 127.504 26.4062C128.26 24.9239 128.643 23.1426 128.643 21.1153C128.643 19.3576 128.339 17.7698 127.742 16.3993C127.142 15.0281 126.342 13.8622 125.357 12.937C124.376 12.0047 123.22 11.2959 121.927 10.8215C119.358 9.89023 116.545 9.89023 113.978 10.8215C112.685 11.2959 111.527 12.0047 110.529 12.9306C109.53 13.8622 108.722 15.0281 108.124 16.3993C107.525 17.7698 107.221 19.3576 107.221 21.1153C107.221 22.9023 107.525 24.496 108.124 25.8553C108.722 27.2084 109.532 28.3689 110.529 29.2945C111.527 30.2258 112.685 30.9352 113.978 31.4036C115.26 31.8719 116.599 32.1126 117.952 32.1126C119.44 32.1126 120.87 31.8255 122.211 31.2628C122.929 31.9249 123.401 32.6923 123.652 33.6005L123.751 33.9466H128.931V32.8562L127.975 32.4759C127.326 32.218 126.832 31.8198 126.477 31.2568ZM124.943 21.1153C124.943 22.5802 124.683 23.9453 124.168 25.1583C123.691 26.2714 123.039 27.2084 122.215 27.9473C120.957 27.4725 119.582 27.2324 118.117 27.2324C117.062 27.2324 116.123 27.3846 115.325 27.6774C114.726 27.9003 114.273 28.0762 113.956 28.2165C113.03 27.4958 112.299 26.5409 111.776 25.369C111.209 24.0977 110.921 22.6684 110.921 21.1154C110.921 19.9498 111.09 18.8306 111.428 17.7939C111.762 16.7625 112.241 15.8544 112.857 15.087C113.466 14.3254 114.213 13.7162 115.079 13.2824C115.939 12.8489 116.909 12.6322 117.952 12.6322C118.996 12.6322 119.957 12.8489 120.804 13.2824C121.655 13.7162 122.398 14.3254 123.009 15.087C123.622 15.8544 124.101 16.7626 124.436 17.7939C124.773 18.8305 124.943 19.9497 124.943 21.1153Z" fill="#012970"/>
<path d="M149.011 9.95898H131.103L130.453 14.9278L131.392 15.0918L133.072 13.0471C133.395 12.6605 133.804 12.473 134.327 12.473H138.208V28.9242C138.208 29.2937 138.112 29.6159 137.921 29.9145C137.726 30.2139 137.471 30.4301 137.148 30.565L136.324 30.9051V31.9946H143.79V30.9051L142.969 30.5713C142.643 30.43 142.388 30.2138 142.193 29.9144C141.998 29.6158 141.905 29.2936 141.905 28.9241V12.4729H145.787C146.31 12.4729 146.718 12.6604 147.039 13.047L148.721 15.0917L149.658 14.9277L149.011 9.95898Z" fill="#012970"/>
<path d="M49.5678 37.1172V42.4677H48.4023V37.1172H49.5678Z" fill="#012970"/>
<path d="M54.3809 42.4677V37.1172H55.7369L56.8037 39.0779C57.1084 39.6416 57.4133 40.3084 57.6416 40.9119H57.6646C57.5883 40.2052 57.5654 39.4828 57.5654 38.6811V37.1172H58.6321V42.4677H57.4133L56.316 40.4036C56.0114 39.832 55.6762 39.1413 55.4248 38.5142L55.402 38.5222C55.4322 39.2288 55.4477 39.9829 55.4477 40.8559V42.4676L54.3809 42.4677Z" fill="#012970"/>
<path d="M64.4375 38.1332H63.0586V37.1172H67.0053V38.1332H65.6035V42.4678H64.4376L64.4375 38.1332Z" fill="#012970"/>
<path d="M74.4848 40.2051H72.5952V41.4753H74.7058V42.4677H71.4297V37.1172H74.5991V38.1095H72.5952V39.2209H74.4848V40.2051Z" fill="#012970"/>
<path d="M79.3067 37.1893C79.6799 37.1257 80.2361 37.0781 80.8531 37.0781C81.6152 37.0781 82.1486 37.1973 82.5139 37.4985C82.8185 37.7525 82.9865 38.126 82.9865 38.6183C82.9865 39.3008 82.5216 39.769 82.0797 39.9358V39.9597C82.438 40.1105 82.6358 40.4677 82.7652 40.96C82.9256 41.5631 83.0856 42.2615 83.1842 42.4683H81.9961C81.912 42.3175 81.7902 41.8808 81.6377 41.2219C81.5007 40.5552 81.2798 40.3725 80.8073 40.3644H80.457V42.4681H79.3066L79.3067 37.1893ZM80.4572 39.4914H80.9146C81.4933 39.4914 81.836 39.1898 81.836 38.7212C81.836 38.2291 81.5161 37.9832 80.9827 37.9752C80.7008 37.9752 80.5409 37.9987 80.4571 38.0148L80.4572 39.4914Z" fill="#012970"/>
<path d="M87.6309 42.4677V37.1172H88.987L90.0538 39.0779C90.3581 39.6416 90.6631 40.3084 90.8916 40.9119H90.9143C90.8384 40.2052 90.8155 39.4828 90.8155 38.6811V37.1172H91.8823V42.4677H90.6631L89.5661 40.4036C89.2611 39.832 88.926 39.1413 88.6747 38.5142L88.6519 38.5222C88.6822 39.2288 88.6973 39.9829 88.6973 40.8559V42.4676L87.6309 42.4677Z" fill="#012970"/>
<path d="M97.8937 41.0944L97.528 42.4677H96.3242L97.8937 37.1172H99.4174L101.01 42.4677H99.7603L99.3643 41.0944H97.8937ZM99.1965 40.1894L98.8763 39.0543C98.7852 38.7368 98.6935 38.3399 98.6173 38.0224H98.6022C98.526 38.3399 98.4498 38.7447 98.3661 39.0543L98.0612 40.1894H99.1965Z" fill="#012970"/>
<path d="M105.859 38.1332H104.48V37.1172H108.427V38.1332H107.025V42.4678H105.859V38.1332Z" fill="#012970"/>
<path d="M114.017 37.1172V42.4677H112.852V37.1172H114.017Z" fill="#012970"/>
<path d="M123.531 39.7362C123.531 41.4905 122.51 42.5544 121.009 42.5544C119.485 42.5544 118.594 41.3557 118.594 39.8314C118.594 38.228 119.576 37.0293 121.093 37.0293C122.669 37.0292 123.531 38.2596 123.531 39.7362ZM119.82 39.8074C119.82 40.8552 120.293 41.5938 121.07 41.5938C121.855 41.5938 122.304 40.8156 122.304 39.7757C122.304 38.8154 121.862 37.9897 121.062 37.9897C120.277 37.9897 119.82 38.7676 119.82 39.8074Z" fill="#012970"/>
<path d="M128.102 42.4677V37.1172H129.458L130.524 39.0779C130.829 39.6416 131.134 40.3084 131.362 40.9119H131.385C131.309 40.2052 131.286 39.4828 131.286 38.6811V37.1172H132.353V42.4677H131.134L130.037 40.4036C129.732 39.832 129.397 39.1413 129.145 38.5142L129.122 38.5222C129.153 39.2288 129.168 39.9829 129.168 40.8559V42.4676L128.102 42.4677Z" fill="#012970"/>
<path d="M138.363 41.0944L137.997 42.4677H136.793L138.363 37.1172H139.886L141.479 42.4677H140.229L139.833 41.0944H138.363ZM139.666 40.1894L139.345 39.0543C139.254 38.7368 139.163 38.3399 139.087 38.0224H139.071C138.995 38.3399 138.919 38.7447 138.835 39.0543L138.53 40.1894H139.666Z" fill="#012970"/>
<path d="M145.973 37.1172H147.139V41.4515H149.181V42.4678H145.973V37.1172Z" fill="#012970"/>
</g>
<defs>
<clipPath id="clip0_516_3539">
<rect width="150" height="47" fill="white"/>
</clipPath>
</defs>
</svg>
