<svg width="150" height="47" viewBox="0 0 150 47" fill="none" xmlns="http://www.w3.org/2000/svg">
<path d="M33.6721 32.4744C33.7155 32.3962 33.7409 32.306 33.7409 32.2086C33.7409 31.9201 33.5225 31.6865 33.2523 31.6865C32.9826 31.6865 32.7637 31.9201 32.7637 32.2086C32.7637 32.4337 32.8988 32.626 33.0858 32.6988L34.6604 36.3387H29.2071L27.6905 32.5227C27.7194 32.4562 27.7364 32.3821 27.7364 32.3034C27.7364 32.0151 27.5174 31.7815 27.2478 31.7815C26.9781 31.7815 26.7598 32.0151 26.7598 32.3034C26.7598 32.548 26.9172 32.7532 27.1296 32.81L28.7244 36.8085C28.7746 36.9272 28.8855 37.0032 29.0073 37.0032H35.1333C35.2377 37.0032 35.3354 36.9471 35.3928 36.8537C35.45 36.76 35.4599 36.642 35.4181 36.5394L33.6721 32.4744Z" fill="white"/>
<path d="M14.1816 29.5932C14.4078 29.548 14.5791 29.3359 14.5791 29.0803C14.5791 28.7921 14.3602 28.5586 14.0912 28.5586C13.8216 28.5586 13.6033 28.7921 13.6033 29.0803C13.6033 29.1476 13.6146 29.2114 13.6363 29.2701L11.2783 34.7816C11.2342 34.8843 11.242 35.0042 11.2994 35.099C11.3567 35.1946 11.455 35.2524 11.5612 35.2524H12.9577C13.0452 35.3401 13.1627 35.3946 13.292 35.3946C13.5616 35.3946 13.7806 35.161 13.7806 34.8727C13.7806 34.5841 13.5616 34.3501 13.292 34.3501C13.1205 34.3501 12.9704 34.4451 12.8829 34.5874H12.0451L14.1816 29.5932Z" fill="white"/>
<path d="M23.5379 23.9997H23.1699C23.08 23.8842 22.9448 23.8101 22.7935 23.8101C22.5238 23.8101 22.3049 24.0436 22.3049 24.3327C22.3049 24.621 22.5238 24.8545 22.7935 24.8545C22.9448 24.8545 23.08 24.7802 23.1699 24.6649H24.0362C24.1435 24.6649 24.2431 24.6055 24.2998 24.5082C24.3565 24.4108 24.3625 24.2889 24.3154 24.1862L22.0954 19.3438C22.0428 19.2291 21.9307 19.1561 21.8125 19.158C21.6925 19.1595 21.5838 19.2349 21.5345 19.3517L19.8201 23.8412C19.6312 23.9142 19.4961 24.1056 19.4961 24.3329C19.4961 24.6212 19.7151 24.8548 19.9847 24.8548C20.2543 24.8548 20.4726 24.6212 20.4726 24.3329C20.4726 24.2369 20.448 24.1472 20.4057 24.0695L21.8262 20.2659L23.5379 23.9997Z" fill="white"/>
<path d="M21.507 13.0346C21.507 12.7462 21.2879 12.5127 21.0184 12.5127C20.7488 12.5127 20.5304 12.7462 20.5304 13.0346C20.5304 13.1114 20.546 13.1843 20.5743 13.2502L15.4488 25.4401C15.2346 25.4949 15.0742 25.7015 15.0742 25.9478C15.0742 26.2361 15.2931 26.4697 15.5628 26.4697C15.8325 26.4697 16.0508 26.2361 16.0508 25.9478C16.0508 25.8704 16.0352 25.7982 16.0074 25.7317L21.1323 13.5423C21.3472 13.4869 21.507 13.281 21.507 13.0346Z" fill="white"/>
<path d="M20.7522 10.9911C20.882 10.9911 20.9991 10.9369 21.0865 10.8484H23.9714L26.8675 17.5902C26.8458 17.6489 26.8337 17.7128 26.8337 17.7798C26.8337 18.0682 27.0528 18.3017 27.3216 18.3017C27.5914 18.3017 27.8103 18.0682 27.8103 17.7798C27.8103 17.5244 27.639 17.3121 27.4127 17.267L24.4527 10.3768C24.4021 10.2594 24.2917 10.1839 24.1704 10.1839H21.1613C21.0739 10.0407 20.9236 9.94653 20.7523 9.94653C20.4828 9.94653 20.2637 10.1806 20.2637 10.4684C20.2635 10.7568 20.4826 10.9911 20.7522 10.9911Z" fill="white"/>
<path d="M27.8527 24.6656C28.1231 24.6656 28.3413 24.4314 28.3413 24.143C28.3413 23.8888 28.1713 23.6766 27.9451 23.6307L23.5492 13.5575C23.5835 13.4858 23.6035 13.4052 23.6035 13.3194C23.6035 13.0304 23.3847 12.7969 23.1156 12.7969C22.8459 12.7969 22.627 13.0304 22.627 13.3194C22.627 13.5568 22.7759 13.7569 22.9787 13.82L27.3993 23.9521C27.3775 24.0115 27.3649 24.0753 27.3649 24.143C27.3648 24.4314 27.5831 24.6656 27.8527 24.6656Z" fill="white"/>
<path d="M30.5171 34.2545C30.2476 34.2545 30.0285 34.4882 30.0285 34.7763C30.0285 35.0654 30.2476 35.2991 30.5171 35.2991C30.6686 35.2991 30.8036 35.2248 30.8937 35.1093H32.3818C32.4868 35.1093 32.5852 35.052 32.6423 34.9571C32.6996 34.8628 32.7081 34.7436 32.6646 34.6403L29.1135 26.1901C29.1092 26.1798 29.1031 26.1708 29.0977 26.1604C29.125 26.0953 29.1412 26.0231 29.1412 25.9469C29.1412 25.6579 28.9223 25.4243 28.6526 25.4243C28.383 25.4243 28.1641 25.6579 28.1641 25.9469C28.1641 26.1954 28.3269 26.4031 28.5447 26.4552C28.5453 26.4578 28.5458 26.4605 28.5465 26.4624L31.9011 34.4443H30.8938C30.8037 34.3288 30.6686 34.2545 30.5171 34.2545Z" fill="white"/>
<path d="M29.3792 33.9679C29.6487 33.9679 29.8679 33.7336 29.8679 33.4453C29.8679 33.2196 29.7339 33.0286 29.5463 32.955L28.4719 30.5363C28.5022 30.4685 28.5195 30.3924 28.5195 30.3117C28.5195 30.0239 28.3012 29.79 28.0316 29.79C27.7621 29.79 27.543 30.024 27.543 30.3117C27.543 30.5551 27.6986 30.7588 27.9084 30.817L28.96 33.1788C28.9166 33.2569 28.8912 33.3479 28.8912 33.4453C28.8911 33.7337 29.1096 33.9679 29.3792 33.9679Z" fill="white"/>
<path d="M22.7058 26.6567C22.8577 26.6567 22.9929 26.5832 23.0828 26.467H26.4671C26.5733 26.467 26.6722 26.4095 26.7295 26.3135C26.7863 26.2181 26.7941 26.0979 26.7495 25.9955L22.1002 15.7409C22.0495 15.6221 21.9397 15.5473 21.816 15.5479C21.6942 15.5492 21.5838 15.6259 21.5342 15.7454L17.2729 25.9999C17.23 26.1025 17.2391 26.2215 17.2965 26.3155C17.3537 26.4103 17.4516 26.4671 17.5571 26.4671H20.376C20.4658 26.5833 20.6011 26.6568 20.7524 26.6568C21.0226 26.6568 21.2411 26.4232 21.2411 26.1349C21.2411 25.8465 21.0226 25.6123 20.7524 25.6123C20.6011 25.6123 20.4659 25.6864 20.376 25.8026H18.0348L21.8238 16.6848L25.9809 25.8026H23.0828C22.993 25.6864 22.8577 25.6123 22.7058 25.6123C22.4362 25.6123 22.2178 25.8465 22.2178 26.1349C22.2178 26.4232 22.4362 26.6567 22.7058 26.6567Z" fill="white"/>
<path d="M17.0218 28.9327C17.151 28.9327 17.2686 28.8788 17.3561 28.7908H26.3643C26.4519 28.8787 26.5695 28.9327 26.6986 28.9327C26.9683 28.9327 27.1873 28.6994 27.1873 28.4111C27.1873 28.1225 26.9683 27.8892 26.6986 27.8892C26.5273 27.8892 26.3765 27.9833 26.2896 28.1264H17.4303C17.3434 27.9833 17.1925 27.8892 17.0218 27.8892C16.7522 27.8892 16.5332 28.1225 16.5332 28.4111C16.5332 28.6994 16.7521 28.9327 17.0218 28.9327Z" fill="white"/>
<path d="M26.0784 29.8845C25.9456 29.8845 25.8256 29.9413 25.737 30.0336C25.7188 30.0297 25.7003 30.027 25.6802 30.027L16.9356 29.9792H16.9338C16.8398 29.9792 16.7516 30.0257 16.6931 30.1018C16.658 30.1321 16.6291 30.1708 16.6092 30.2161L14.2934 36.3412H9.31408L19.5651 12.2959C19.7641 12.2301 19.9084 12.0314 19.9084 11.7972C19.9084 11.5089 19.6894 11.2747 19.4198 11.2747C19.1502 11.2747 18.9318 11.5089 18.9318 11.7972C18.9318 11.8863 18.9529 11.9701 18.9897 12.0437L8.52771 36.5831C8.48435 36.6864 8.49212 36.8056 8.54934 36.9006C8.60677 36.9961 8.70504 37.0534 8.81055 37.0534H14.4686C14.5633 37.0534 14.6512 37.0069 14.7093 36.9308C14.7443 36.9005 14.7731 36.8618 14.7937 36.8167L17.1089 30.6914H25.6696C25.7564 30.8345 25.9073 30.9289 26.0786 30.9289C26.3483 30.9289 26.5672 30.6953 26.5672 30.407C26.5672 30.1186 26.348 29.8845 26.0784 29.8845Z" fill="white"/>
<path d="M27.543 19.5829C27.543 19.8274 27.7012 20.0325 27.9127 20.0893L32.0491 29.8587C32.007 29.9355 31.9823 30.0258 31.9823 30.1221C31.9823 30.4105 32.201 30.6445 32.4701 30.6445C32.7404 30.6445 32.9588 30.4105 32.9588 30.1221C32.9588 29.8955 32.8235 29.7033 32.6353 29.6311L28.4735 19.8029C28.503 19.7357 28.5194 19.6616 28.5194 19.5829C28.5194 19.2946 28.3011 19.061 28.0315 19.061C27.7621 19.0609 27.543 19.2945 27.543 19.5829Z" fill="white"/>
<path d="M37.5109 6.88383C33.3606 2.44518 27.8427 0 21.9731 0C16.1035 0 10.5863 2.44507 6.43598 6.88383C2.28573 11.3217 0 17.2229 0 23.5002C0 29.7775 2.28573 35.6778 6.43598 40.1165C10.5863 44.5547 16.1035 47 21.9731 47C27.8427 47 33.3606 44.5548 37.5109 40.1165C41.6611 35.6778 43.9462 29.7775 43.9462 23.5002C43.9462 17.2229 41.6611 11.3217 37.5109 6.88383ZM21.973 45.8272C10.4619 45.8272 1.09651 35.811 1.09651 23.5002C1.09651 11.1889 10.4619 1.17291 21.973 1.17291C33.4847 1.17291 42.8501 11.1888 42.8501 23.5002C42.8501 35.811 33.4847 45.8272 21.973 45.8272Z" fill="white"/>
<path d="M71.1862 27.6877L62.8042 4.44604H60.2539L51.7927 27.9047C51.319 29.1643 50.5193 30.0198 49.3549 30.5235L48.7305 30.7697V31.9531H56.4V30.7757L54.8391 30.1247C54.5924 30.0254 54.4335 29.873 54.3322 29.6386C54.2335 29.4046 54.2309 29.1821 54.324 28.9237L56.8716 21.8409H64.5517L67.0557 28.836C67.1487 29.0937 67.1487 29.3169 67.0472 29.5511C66.9488 29.7856 66.7869 29.9434 66.5405 30.0429L64.7765 30.7757V31.9531H74.8619V30.7638L73.632 30.3068C72.4596 29.7971 71.6595 28.9417 71.1862 27.6877ZM63.5409 18.9351H57.9202L60.7308 11.1894L63.5409 18.9351Z" fill="white"/>
<path d="M92.3003 28.6781L92.2945 28.672C92.1082 28.2388 91.9056 27.7524 91.6864 27.2191C91.4703 26.6803 91.2374 26.1002 90.9851 25.4732C90.6291 24.6527 90.2538 23.8209 89.8759 23.0128C89.588 22.3976 89.2569 21.8173 88.8895 21.2959C89.3693 21.1086 89.7857 20.8804 90.1388 20.6105C90.6515 20.2235 91.0593 19.7728 91.3497 19.2632C91.635 18.7648 91.8396 18.2258 91.96 17.6463C92.075 17.0892 92.136 16.4918 92.136 15.8766C92.136 15.0739 92.0315 14.306 91.8289 13.5913C91.6155 12.8415 91.2204 12.1733 90.6593 11.6055C90.1059 11.0427 89.35 10.6035 88.4158 10.2868C87.5008 9.98243 86.312 9.82983 84.8826 9.82983H77.0566V10.92L77.8758 11.2538C78.2043 11.3944 78.4565 11.6056 78.6508 11.9095C78.8424 12.2091 78.9384 12.5312 78.9384 12.9003V28.7894C78.9384 29.1581 78.8424 29.4804 78.6508 29.7794C78.4565 30.0842 78.2043 30.2948 77.8812 30.4357L77.0566 30.7756V31.8652H84.5209V30.7756L83.7015 30.4357C83.3731 30.2948 83.1183 30.0842 82.9238 29.7794C82.7321 29.4804 82.639 29.1581 82.639 28.7894V21.8818H84.5126C84.7208 21.8818 84.9236 21.9871 85.1371 22.2099C85.4026 22.4788 85.6576 22.8426 85.893 23.2934C86.1449 23.774 86.405 24.3484 86.6735 25.0044C86.9448 25.6783 87.2324 26.3632 87.5339 27.067C87.8873 27.9165 88.1915 28.6191 88.4374 29.1933C88.6759 29.7558 88.868 30.2072 89.0046 30.5585C89.1715 30.9806 89.3114 31.3085 89.4238 31.549L89.5523 31.8181H94.8771V30.652L94.0529 30.5061C93.2287 30.1427 92.6559 29.5445 92.3003 28.6781ZM88.353 15.8767C88.353 16.9486 88.164 17.7219 87.7914 18.1848C87.394 18.6712 86.9338 18.9933 86.3859 19.1749L86.2162 19.2279C86.0195 19.2747 85.8249 19.3098 85.6354 19.3277C85.3699 19.357 85.1015 19.3741 84.8413 19.3741H82.639V12.3376H84.8413C85.2464 12.3376 85.674 12.3848 86.1124 12.4606C86.5067 12.5371 86.8682 12.701 87.194 12.947C87.5148 13.1935 87.7941 13.5508 88.0187 14.008C88.2406 14.4531 88.353 15.0853 88.353 15.8767Z" fill="white"/>
<path d="M97.0293 11.049L97.8486 11.3835C98.177 11.5234 98.4292 11.741 98.6264 12.0391C98.8184 12.3379 98.9114 12.6662 98.9114 13.0297V28.9242C98.9114 29.2937 98.8184 29.6159 98.6264 29.9145C98.4292 30.2139 98.177 30.4301 97.854 30.565L97.0294 30.9051V31.9946H104.494V30.9051L103.675 30.5713C103.349 30.43 103.094 30.2138 102.899 29.9144C102.705 29.6158 102.612 29.2936 102.612 28.9241V13.0296C102.612 12.6661 102.705 12.3378 102.899 12.039C103.094 11.7409 103.349 11.5233 103.669 11.3885L104.494 11.049V9.95898H97.0294V11.049H97.0293Z" fill="white"/>
<path d="M126.477 31.2563L126.468 31.2449C126.047 30.6236 125.559 30.0792 125.019 29.6049C126.022 28.7492 126.855 27.6707 127.504 26.4057C128.26 24.9234 128.643 23.1421 128.643 21.1148C128.643 19.3571 128.339 17.7693 127.742 16.3988C127.142 15.0276 126.342 13.8617 125.357 12.9365C124.376 12.0042 123.22 11.2954 121.927 10.821C119.358 9.88974 116.545 9.88974 113.978 10.821C112.685 11.2954 111.527 12.0042 110.529 12.9301C109.53 13.8617 108.722 15.0276 108.124 16.3988C107.525 17.7693 107.221 19.3571 107.221 21.1148C107.221 22.9018 107.525 24.4955 108.124 25.8548C108.722 27.2079 109.532 28.3684 110.529 29.294C111.527 30.2253 112.685 30.9347 113.978 31.4031C115.26 31.8714 116.599 32.1121 117.952 32.1121C119.44 32.1121 120.87 31.825 122.211 31.2623C122.929 31.9244 123.401 32.6918 123.652 33.6L123.751 33.9461H128.931V32.8557L127.975 32.4754C127.326 32.2175 126.832 31.8193 126.477 31.2563ZM124.943 21.1148C124.943 22.5797 124.683 23.9448 124.168 25.1578C123.691 26.2709 123.039 27.2079 122.215 27.9468C120.957 27.472 119.582 27.2319 118.117 27.2319C117.062 27.2319 116.123 27.3841 115.325 27.6769C114.726 27.8998 114.273 28.0757 113.956 28.216C113.03 27.4953 112.299 26.5404 111.776 25.3685C111.209 24.0972 110.921 22.6679 110.921 21.1149C110.921 19.9493 111.09 18.8301 111.428 17.7934C111.762 16.762 112.241 15.8539 112.857 15.0865C113.466 14.3249 114.213 13.7157 115.079 13.2819C115.939 12.8484 116.909 12.6317 117.952 12.6317C118.996 12.6317 119.957 12.8484 120.804 13.2819C121.655 13.7157 122.398 14.3249 123.009 15.0865C123.622 15.8539 124.101 16.7621 124.436 17.7934C124.773 18.83 124.943 19.9492 124.943 21.1148Z" fill="white"/>
<path d="M149.011 9.95898H131.103L130.453 14.9278L131.392 15.0918L133.072 13.0471C133.395 12.6605 133.804 12.473 134.327 12.473H138.208V28.9242C138.208 29.2937 138.112 29.6159 137.921 29.9145C137.726 30.2139 137.471 30.4301 137.148 30.565L136.324 30.9051V31.9946H143.79V30.9051L142.969 30.5713C142.643 30.43 142.388 30.2138 142.193 29.9144C141.998 29.6158 141.905 29.2936 141.905 28.9241V12.4729H145.787C146.31 12.4729 146.718 12.6604 147.039 13.047L148.721 15.0917L149.658 14.9277L149.011 9.95898Z" fill="white"/>
<path d="M49.5678 37.1172V42.4677H48.4023V37.1172H49.5678Z" fill="white"/>
<path d="M54.3809 42.4677V37.1172H55.7369L56.8037 39.0779C57.1084 39.6416 57.4133 40.3084 57.6416 40.9119H57.6646C57.5883 40.2052 57.5654 39.4828 57.5654 38.6811V37.1172H58.6321V42.4677H57.4133L56.316 40.4036C56.0114 39.832 55.6762 39.1413 55.4248 38.5142L55.402 38.5222C55.4322 39.2288 55.4477 39.9829 55.4477 40.8559V42.4676H54.3809V42.4677Z" fill="white"/>
<path d="M64.4375 38.1332H63.0586V37.1172H67.0053V38.1332H65.6035V42.4678H64.4376V38.1332H64.4375Z" fill="white"/>
<path d="M74.4848 40.2051H72.5952V41.4753H74.7058V42.4677H71.4297V37.1172H74.5991V38.1095H72.5952V39.2209H74.4848V40.2051Z" fill="white"/>
<path d="M79.3067 37.1893C79.6799 37.1257 80.2361 37.0781 80.8531 37.0781C81.6152 37.0781 82.1486 37.1973 82.5139 37.4985C82.8185 37.7525 82.9865 38.126 82.9865 38.6183C82.9865 39.3008 82.5216 39.769 82.0797 39.9358V39.9597C82.438 40.1105 82.6358 40.4677 82.7652 40.96C82.9256 41.5631 83.0856 42.2615 83.1842 42.4683H81.9961C81.912 42.3175 81.7902 41.8808 81.6377 41.2219C81.5007 40.5552 81.2798 40.3725 80.8073 40.3644H80.457V42.4681H79.3066V37.1893H79.3067ZM80.4572 39.4914H80.9146C81.4933 39.4914 81.836 39.1898 81.836 38.7212C81.836 38.2291 81.5161 37.9832 80.9827 37.9752C80.7008 37.9752 80.5409 37.9987 80.4571 38.0148V39.4914H80.4572Z" fill="white"/>
<path d="M87.6309 42.4677V37.1172H88.987L90.0538 39.0779C90.3581 39.6416 90.6631 40.3084 90.8916 40.9119H90.9143C90.8384 40.2052 90.8155 39.4828 90.8155 38.6811V37.1172H91.8823V42.4677H90.6631L89.5661 40.4036C89.2611 39.832 88.926 39.1413 88.6747 38.5142L88.6519 38.5222C88.6822 39.2288 88.6973 39.9829 88.6973 40.8559V42.4676H87.6309V42.4677Z" fill="white"/>
<path d="M97.8937 41.0944L97.528 42.4677H96.3242L97.8937 37.1172H99.4174L101.01 42.4677H99.7603L99.3643 41.0944H97.8937ZM99.1965 40.1894L98.8763 39.0543C98.7852 38.7368 98.6935 38.3399 98.6173 38.0224H98.6022C98.526 38.3399 98.4498 38.7447 98.3661 39.0543L98.0612 40.1894H99.1965Z" fill="white"/>
<path d="M105.859 38.1332H104.48V37.1172H108.427V38.1332H107.025V42.4678H105.859V38.1332Z" fill="white"/>
<path d="M114.017 37.1172V42.4677H112.852V37.1172H114.017Z" fill="white"/>
<path d="M123.531 39.7357C123.531 41.49 122.51 42.5539 121.009 42.5539C119.485 42.5539 118.594 41.3552 118.594 39.8309C118.594 38.2275 119.576 37.0288 121.093 37.0288C122.669 37.0287 123.531 38.2591 123.531 39.7357ZM119.82 39.8069C119.82 40.8547 120.293 41.5933 121.07 41.5933C121.855 41.5933 122.304 40.8151 122.304 39.7752C122.304 38.8149 121.862 37.9892 121.062 37.9892C120.277 37.9892 119.82 38.7671 119.82 39.8069Z" fill="white"/>
<path d="M128.102 42.4677V37.1172H129.458L130.524 39.0779C130.829 39.6416 131.134 40.3084 131.362 40.9119H131.385C131.309 40.2052 131.286 39.4828 131.286 38.6811V37.1172H132.353V42.4677H131.134L130.037 40.4036C129.732 39.832 129.397 39.1413 129.145 38.5142L129.122 38.5222C129.153 39.2288 129.168 39.9829 129.168 40.8559V42.4676H128.102V42.4677Z" fill="white"/>
<path d="M138.363 41.0944L137.997 42.4677H136.793L138.363 37.1172H139.886L141.479 42.4677H140.229L139.833 41.0944H138.363ZM139.666 40.1894L139.345 39.0543C139.254 38.7368 139.163 38.3399 139.087 38.0224H139.071C138.995 38.3399 138.919 38.7447 138.835 39.0543L138.53 40.1894H139.666Z" fill="white"/>
<path d="M145.973 37.1172H147.139V41.4515H149.181V42.4678H145.973V37.1172H145.973Z" fill="white"/>
</svg>
